<svg xmlns="http://www.w3.org/2000/svg" width="1280" height="720" viewBox="0 0 1280 720" role="img" aria-labelledby="title desc">
  <title id="title">KeyHacks Workflow GIF Placeholder</title>
  <desc id="desc">Placeholder for a future animated workflow GIF.</desc>
  <rect width="1280" height="720" fill="#07080d"/>
  <text x="110" y="120" fill="#f2f3f7" font-family="Arial, sans-serif" font-size="36" font-weight="700">Workflow GIF Placeholder</text>
  <text x="110" y="162" fill="#8d94a5" font-family="Arial, sans-serif" font-size="18">Replace this with an animated capture when publishing a release.</text>
  <g fill="#10121a" stroke="#2b3040" stroke-width="2">
    <rect x="110" y="250" width="230" height="120" rx="10"/>
    <rect x="410" y="250" width="230" height="120" rx="10"/>
    <rect x="710" y="250" width="230" height="120" rx="10"/>
    <rect x="1010" y="250" width="160" height="120" rx="10"/>
  </g>
  <g fill="#dfe8f7" font-family="Arial, sans-serif" font-size="18" font-weight="700">
    <text x="168" y="318">Paste Key</text>
    <text x="462" y="318">Detect</text>
    <text x="748" y="318">Validate</text>
    <text x="1044" y="318">Report</text>
  </g>
  <g stroke="#7dadff" stroke-width="4" fill="none" stroke-linecap="round" stroke-linejoin="round">
    <path d="M350 310 H390"/>
    <path d="M650 310 H690"/>
    <path d="M950 310 H990"/>
    <path d="M382 298 L394 310 L382 322"/>
    <path d="M682 298 L694 310 L682 322"/>
    <path d="M982 298 L994 310 L982 322"/>
  </g>
</svg>
