<svg xmlns="http://www.w3.org/2000/svg" width="1280" height="720" viewBox="0 0 1280 720" role="img" aria-labelledby="title desc">
  <title id="title">Report Generator Placeholder</title>
  <desc id="desc">Placeholder for the KeyHacks bug bounty report generator.</desc>
  <rect width="1280" height="720" fill="#07080d"/>
  <rect x="80" y="46" width="1120" height="628" rx="14" fill="#10121a" stroke="#2b3040"/>
  <text x="116" y="104" fill="#f2f3f7" font-family="Arial, sans-serif" font-size="30" font-weight="700">KeyHacks Report</text>
  <line x1="80" y1="142" x2="1200" y2="142" stroke="#2b3040"/>
  <rect x="116" y="178" width="430" height="430" rx="8" fill="#0b0c11" stroke="#242936"/>
  <text x="150" y="222" fill="#dfe8f7" font-family="Arial, sans-serif" font-size="18" font-weight="700">Accessible Checks</text>
  <circle cx="498" cy="270" r="7" fill="#28d47d"/>
  <circle cx="498" cy="322" r="7" fill="#ff445f"/>
  <rect x="584" y="178" width="580" height="48" rx="8" fill="#111219" stroke="#303647"/>
  <rect x="584" y="244" width="580" height="48" rx="8" fill="#111219" stroke="#303647"/>
  <rect x="584" y="310" width="580" height="80" rx="8" fill="#111219" stroke="#303647"/>
  <rect x="584" y="410" width="382" height="44" rx="8" fill="#ffffff"/>
  <rect x="984" y="410" width="180" height="44" rx="8" fill="#171923" stroke="#303647"/>
  <rect x="584" y="476" width="580" height="132" rx="8" fill="#0b0c11" stroke="#303647"/>
  <text x="628" y="440" fill="#111217" font-family="Arial, sans-serif" font-size="12" font-weight="700">GENERATE REPORT</text>
  <text x="604" y="516" fill="#f2f3f7" font-family="monospace" font-size="15"># Exposed Provider API Credential</text>
</svg>
